<svg xmlns="http://www.w3.org/2000/svg" viewBox="0 0 56 47"><defs><style>.cls-1,.cls-2{fill:none;}.cls-2{stroke:#bfbfc2;stroke-linecap:round;stroke-linejoin:round;stroke-width:2px;}</style></defs><g id="Layer_2" data-name="Layer 2"><g id="Layer_1-2" data-name="Layer 1"><rect class="cls-1" width="56" height="47"/><path class="cls-2" d="M46.67,6.74H39.93V39.45h6.74ZM16,12.2h6.18a5.26,5.26,0,0,1,3.9,1.53,5.36,5.36,0,0,1,1.42,3.88,4.58,4.58,0,0,1-1.41,3.6A5.89,5.89,0,0,1,22,22.47H16Zm5.91,15.72c3.87,0,6.91-.92,9.1-2.77a9.38,9.38,0,0,0,3.29-7.58,10.7,10.7,0,0,0-1.5-5.65,10,10,0,0,0-4.3-3.83A14.77,14.77,0,0,0,22,6.74H9.24V39.45H16V27.92Z"/></g></g></svg>