<svg xmlns="http://www.w3.org/2000/svg" viewBox="0 0 56 47"><defs><style>.cls-1{fill:none;}.cls-2{fill:#bfbfc2;}</style></defs><g id="Layer_2" data-name="Layer 2"><g id="Layer_1-2" data-name="Layer 1"><rect class="cls-1" width="56" height="47"/><path class="cls-2" d="M48.4,24.83a1.13,1.13,0,0,1-.81-.33L27.9,4.81,8.22,24.5a1.15,1.15,0,0,1-1.63-1.62l20.5-20.5a1.18,1.18,0,0,1,1.62,0l20.5,20.5a1.15,1.15,0,0,1,0,1.62,1.17,1.17,0,0,1-.81.33"/><path class="cls-2" d="M45.05,21.89V38.44a1.13,1.13,0,0,1-1.14,1.14H12a1.13,1.13,0,0,1-1.14-1.14V21.89H9.07V38.44a2.84,2.84,0,0,0,2.83,2.82h32a2.84,2.84,0,0,0,2.82-2.82V21.89Z"/><path class="cls-2" d="M32,24.62H24a1.11,1.11,0,0,0-1.1,1.11v12h2.21V26.83h5.71V37.74h2.21v-12A1.11,1.11,0,0,0,32,24.62"/></g></g></svg>