<svg xmlns="http://www.w3.org/2000/svg" viewBox="0 0 56 47"><defs><style>.cls-1,.cls-3{fill:none;}.cls-2{fill:#bfbfc2;}.cls-3{stroke:#fff;stroke-miterlimit:10;stroke-width:0.48px;}</style></defs><g id="Layer_2" data-name="Layer 2"><g id="Layer_1-2" data-name="Layer 1"><rect class="cls-1" width="56" height="47"/><path class="cls-2" d="M34.29,8H50.45V38.05H34.29a8.33,8.33,0,0,0-5,1.57V12.43c0-2.16,2.51-4.46,5-4.46M5.89,8H22c2.51,0,5,2.3,5,4.46V39.62a8.3,8.3,0,0,0-5-1.57H5.89ZM4.67,5.74a1.13,1.13,0,0,0-1,1.12v32.3a1.12,1.12,0,0,0,1.11,1.12H22c2.57,0,4.21.87,5.14,2.71a1.11,1.11,0,0,0,2,0c.92-1.84,2.57-2.71,5.13-2.71H51.56a1.12,1.12,0,0,0,1.12-1.12V6.86a1.13,1.13,0,0,0-1-1.12H34.29A7.56,7.56,0,0,0,28.17,9,7.56,7.56,0,0,0,22,5.74H4.67"/><path class="cls-2" d="M33.74,31.92a1.12,1.12,0,1,0,0,2.23h13.4a1.12,1.12,0,0,0,.1-2.23H33.74Zm-24.61,0a1.12,1.12,0,1,0,.1,2.23H22.6a1.12,1.12,0,0,0,0-2.23H9.13m24.61-5a1.12,1.12,0,0,0,0,2.23h13.4a1.12,1.12,0,0,0,.1-2.23H33.74Zm-24.61,0a1.12,1.12,0,1,0,.1,2.23H22.6a1.12,1.12,0,1,0,0-2.23H9.13m24.61-5a1.11,1.11,0,1,0,0,2.22h13.4a1.11,1.11,0,0,0,.1-2.22H33.74Zm-24.61,0a1.11,1.11,0,1,0,.1,2.22H22.6a1.11,1.11,0,1,0,0-2.22H9.13m24.61-5a1.12,1.12,0,0,0,0,2.23h13.4a1.12,1.12,0,0,0,.1-2.23H33.74Zm-24.61,0a1.12,1.12,0,1,0,.1,2.23H22.6a1.12,1.12,0,0,0,0-2.23H9.13m25.72-5a1.12,1.12,0,0,0,0,2.23H47.11a1.12,1.12,0,0,0,.1-2.23H34.85Zm-25.72,0a1.12,1.12,0,1,0,.1,2.23H21.48a1.12,1.12,0,0,0,0-2.23H9.13"/><path class="cls-3" d="M33.74,31.92a1.12,1.12,0,1,0,0,2.23h13.4a1.12,1.12,0,0,0,.1-2.23H33.74Zm-24.61,0a1.12,1.12,0,1,0,.1,2.23H22.6a1.12,1.12,0,0,0,0-2.23H9.13Zm24.61-5a1.12,1.12,0,0,0,0,2.23h13.4a1.12,1.12,0,0,0,.1-2.23H33.74Zm-24.61,0a1.12,1.12,0,1,0,.1,2.23H22.6a1.12,1.12,0,1,0,0-2.23H9.13Zm24.61-5a1.11,1.11,0,1,0,0,2.22h13.4a1.11,1.11,0,0,0,.1-2.22H33.74Zm-24.61,0a1.11,1.11,0,1,0,.1,2.22H22.6a1.11,1.11,0,1,0,0-2.22H9.13Zm24.61-5a1.12,1.12,0,0,0,0,2.23h13.4a1.12,1.12,0,0,0,.1-2.23H33.74Zm-24.61,0a1.12,1.12,0,1,0,.1,2.23H22.6a1.12,1.12,0,0,0,0-2.23H9.13Zm25.72-5a1.12,1.12,0,0,0,0,2.23H47.11a1.12,1.12,0,0,0,.1-2.23H34.85Zm-25.72,0a1.12,1.12,0,1,0,.1,2.23H21.48a1.12,1.12,0,0,0,0-2.23H9.13Z"/></g></g></svg>